<?xml version="1.0" encoding="iso-8859-1"?>
<!-- Uploaded to: SVG Repo, www.svgrepo.com, Generator: SVG Repo Mixer Tools -->
<svg height="800px" width="800px" version="1.1" id="Layer_1" xmlns="http://www.w3.org/2000/svg" xmlns:xlink="http://www.w3.org/1999/xlink" 
	 viewBox="0 0 512 512" xml:space="preserve">
<g transform="translate(1 1)">
	<g>
		<path style="fill:#FFE100;" d="M434.2,7.533h-25.6c18.773,0,34.133,15.36,34.133,34.133v426.667
			c0,18.773-15.36,34.133-34.133,34.133h25.6c18.773,0,34.133-15.36,34.133-34.133V41.667C468.333,22.893,452.973,7.533,434.2,7.533
			"/>
		<path style="fill:#FFE100;" d="M383,502.467H109.933c-18.773,0-34.133-15.36-34.133-34.133V41.667
			c0-18.773,15.36-34.133,34.133-34.133H383c18.773,0,34.133,15.36,34.133,34.133v426.667
			C417.133,487.107,401.773,502.467,383,502.467"/>
	</g>
	<path style="fill:#FFFFFF;" d="M75.8,468.333V41.667c0-18.773,15.36-34.133,34.133-34.133h-25.6
		C65.56,7.533,50.2,22.893,50.2,41.667v426.667c0,18.773,15.36,34.133,34.133,34.133h25.6C91.16,502.467,75.8,487.107,75.8,468.333"
		/>
	<g>
		<path style="fill:#FFA800;" d="M408.6,7.533H383c18.773,0,34.133,15.36,34.133,34.133v426.667
			c0,18.773-15.36,34.133-34.133,34.133h25.6c18.773,0,34.133-15.36,34.133-34.133V41.667C442.733,22.893,427.373,7.533,408.6,7.533
			"/>
		<path style="fill:#FFA800;" d="M331.8,289.133c-9.387,0-17.067,7.68-17.067,17.067v85.333v51.2c0,9.387,7.68,17.067,17.067,17.067
			h34.133c9.387,0,17.067-7.68,17.067-17.067v-51.2V306.2c0-9.387-7.68-17.067-17.067-17.067H331.8z"/>
	</g>
	<path style="fill:#FDCC00;" d="M331.8,289.133c-9.387,0-17.067,7.68-17.067,17.067v85.333v51.2c0,9.387,7.68,17.067,17.067,17.067
		h17.067c9.387,0,17.067-7.68,17.067-17.067v-51.2V306.2c0-9.387-7.68-17.067-17.067-17.067H331.8z"/>
	<path style="fill:#FFA800;" d="M161.133,255H127c-9.387,0-17.067-7.68-17.067-17.067V203.8c0-9.387,7.68-17.067,17.067-17.067
		h34.133c9.387,0,17.067,7.68,17.067,17.067v34.133C178.2,247.32,170.52,255,161.133,255"/>
	<path style="fill:#FDCC00;" d="M144.067,255H127c-9.387,0-17.067-7.68-17.067-17.067V203.8c0-9.387,7.68-17.067,17.067-17.067
		h17.067c9.387,0,17.067,7.68,17.067,17.067v34.133C161.133,247.32,153.453,255,144.067,255"/>
	<path style="fill:#FFA800;" d="M263.533,255H229.4c-9.387,0-17.067-7.68-17.067-17.067V203.8c0-9.387,7.68-17.067,17.067-17.067
		h34.133c9.387,0,17.067,7.68,17.067,17.067v34.133C280.6,247.32,272.92,255,263.533,255"/>
	<path style="fill:#FDCC00;" d="M246.467,255H229.4c-9.387,0-17.067-7.68-17.067-17.067V203.8c0-9.387,7.68-17.067,17.067-17.067
		h17.067c9.387,0,17.067,7.68,17.067,17.067v34.133C263.533,247.32,255.853,255,246.467,255"/>
	<path style="fill:#FFA800;" d="M365.933,255H331.8c-9.387,0-17.067-7.68-17.067-17.067V203.8c0-9.387,7.68-17.067,17.067-17.067
		h34.133c9.387,0,17.067,7.68,17.067,17.067v34.133C383,247.32,375.32,255,365.933,255"/>
	<path style="fill:#FDCC00;" d="M348.867,255H331.8c-9.387,0-17.067-7.68-17.067-17.067V203.8c0-9.387,7.68-17.067,17.067-17.067
		h17.067c9.387,0,17.067,7.68,17.067,17.067v34.133C365.933,247.32,358.253,255,348.867,255"/>
	<path style="fill:#FFA800;" d="M263.533,357.4H229.4c-9.387,0-17.067-7.68-17.067-17.067V306.2c0-9.387,7.68-17.067,17.067-17.067
		h34.133c9.387,0,17.067,7.68,17.067,17.067v34.133C280.6,349.72,272.92,357.4,263.533,357.4"/>
	<path style="fill:#FDCC00;" d="M246.467,357.4H229.4c-9.387,0-17.067-7.68-17.067-17.067V306.2c0-9.387,7.68-17.067,17.067-17.067
		h17.067c9.387,0,17.067,7.68,17.067,17.067v34.133C263.533,349.72,255.853,357.4,246.467,357.4"/>
	<path style="fill:#FFA800;" d="M161.133,357.4H127c-9.387,0-17.067-7.68-17.067-17.067V306.2c0-9.387,7.68-17.067,17.067-17.067
		h34.133c9.387,0,17.067,7.68,17.067,17.067v34.133C178.2,349.72,170.52,357.4,161.133,357.4"/>
	<path style="fill:#FDCC00;" d="M144.067,357.4H127c-9.387,0-17.067-7.68-17.067-17.067V306.2c0-9.387,7.68-17.067,17.067-17.067
		h17.067c9.387,0,17.067,7.68,17.067,17.067v34.133C161.133,349.72,153.453,357.4,144.067,357.4"/>
	<path style="fill:#FFA800;" d="M161.133,459.8H127c-9.387,0-17.067-7.68-17.067-17.067V408.6c0-9.387,7.68-17.067,17.067-17.067
		h34.133c9.387,0,17.067,7.68,17.067,17.067v34.133C178.2,452.12,170.52,459.8,161.133,459.8"/>
	<path style="fill:#FDCC00;" d="M144.067,459.8H127c-9.387,0-17.067-7.68-17.067-17.067V408.6c0-9.387,7.68-17.067,17.067-17.067
		h17.067c9.387,0,17.067,7.68,17.067,17.067v34.133C161.133,452.12,153.453,459.8,144.067,459.8"/>
	<path style="fill:#FFA800;" d="M263.533,459.8H229.4c-9.387,0-17.067-7.68-17.067-17.067V408.6c0-9.387,7.68-17.067,17.067-17.067
		h34.133c9.387,0,17.067,7.68,17.067,17.067v34.133C280.6,452.12,272.92,459.8,263.533,459.8"/>
	<path style="fill:#FDCC00;" d="M246.467,459.8H229.4c-9.387,0-17.067-7.68-17.067-17.067V408.6c0-9.387,7.68-17.067,17.067-17.067
		h17.067c9.387,0,17.067,7.68,17.067,17.067v34.133C263.533,452.12,255.853,459.8,246.467,459.8"/>
	<path style="fill:#3DB9F9;" d="M365.933,152.6H127c-9.387,0-17.067-7.68-17.067-17.067V67.267c0-9.387,7.68-17.067,17.067-17.067
		h238.933C375.32,50.2,383,57.88,383,67.267v68.267C383,144.92,375.32,152.6,365.933,152.6"/>
	<path style="fill:#63D3FD;" d="M340.333,152.6H127c-9.387,0-17.067-7.68-17.067-17.067V67.267c0-9.387,7.68-17.067,17.067-17.067
		h213.333c9.387,0,17.067,7.68,17.067,17.067v68.267C357.4,144.92,349.72,152.6,340.333,152.6"/>
	<path d="M408.6,511H84.333c-23.893,0-42.667-18.773-42.667-42.667V41.667C41.667,17.773,60.44-1,84.333-1H408.6
		c23.893,0,42.667,18.773,42.667,42.667v426.667C451.267,492.227,432.493,511,408.6,511z M84.333,16.067
		c-14.507,0-25.6,11.093-25.6,25.6v426.667c0,14.507,11.093,25.6,25.6,25.6H408.6c14.507,0,25.6-11.093,25.6-25.6V41.667
		c0-14.507-11.093-25.6-25.6-25.6H84.333z"/>
	<path d="M365.933,161.133H127c-14.507,0-25.6-11.093-25.6-25.6V67.267c0-14.507,11.093-25.6,25.6-25.6h238.933
		c14.507,0,25.6,11.093,25.6,25.6v68.267C391.533,150.04,380.44,161.133,365.933,161.133z M127,58.733
		c-5.12,0-8.533,3.413-8.533,8.533v68.267c0,5.12,3.413,8.533,8.533,8.533h238.933c5.12,0,8.533-3.413,8.533-8.533V67.267
		c0-5.12-3.413-8.533-8.533-8.533H127z"/>
	<path d="M161.133,263.533H127c-14.507,0-25.6-11.093-25.6-25.6V203.8c0-14.507,11.093-25.6,25.6-25.6h34.133
		c14.507,0,25.6,11.093,25.6,25.6v34.133C186.733,252.44,175.64,263.533,161.133,263.533z M127,195.267
		c-5.12,0-8.533,3.413-8.533,8.533v34.133c0,5.12,3.413,8.533,8.533,8.533h34.133c5.12,0,8.533-3.413,8.533-8.533V203.8
		c0-5.12-3.413-8.533-8.533-8.533H127z"/>
	<path d="M263.533,263.533H229.4c-14.507,0-25.6-11.093-25.6-25.6V203.8c0-14.507,11.093-25.6,25.6-25.6h34.133
		c14.507,0,25.6,11.093,25.6,25.6v34.133C289.133,252.44,278.04,263.533,263.533,263.533z M229.4,195.267
		c-5.12,0-8.533,3.413-8.533,8.533v34.133c0,5.12,3.413,8.533,8.533,8.533h34.133c5.12,0,8.533-3.413,8.533-8.533V203.8
		c0-5.12-3.413-8.533-8.533-8.533H229.4z"/>
	<path d="M365.933,263.533H331.8c-14.507,0-25.6-11.093-25.6-25.6V203.8c0-14.507,11.093-25.6,25.6-25.6h34.133
		c14.507,0,25.6,11.093,25.6,25.6v34.133C391.533,252.44,380.44,263.533,365.933,263.533z M331.8,195.267
		c-5.12,0-8.533,3.413-8.533,8.533v34.133c0,5.12,3.413,8.533,8.533,8.533h34.133c5.12,0,8.533-3.413,8.533-8.533V203.8
		c0-5.12-3.413-8.533-8.533-8.533H331.8z"/>
	<path d="M161.133,365.933H127c-14.507,0-25.6-11.093-25.6-25.6V306.2c0-14.507,11.093-25.6,25.6-25.6h34.133
		c14.507,0,25.6,11.093,25.6,25.6v34.133C186.733,354.84,175.64,365.933,161.133,365.933z M127,297.667
		c-5.12,0-8.533,3.413-8.533,8.533v34.133c0,5.12,3.413,8.533,8.533,8.533h34.133c5.12,0,8.533-3.413,8.533-8.533V306.2
		c0-5.12-3.413-8.533-8.533-8.533H127z"/>
	<path d="M263.533,365.933H229.4c-14.507,0-25.6-11.093-25.6-25.6V306.2c0-14.507,11.093-25.6,25.6-25.6h34.133
		c14.507,0,25.6,11.093,25.6,25.6v34.133C289.133,354.84,278.04,365.933,263.533,365.933z M229.4,297.667
		c-5.12,0-8.533,3.413-8.533,8.533v34.133c0,5.12,3.413,8.533,8.533,8.533h34.133c5.12,0,8.533-3.413,8.533-8.533V306.2
		c0-5.12-3.413-8.533-8.533-8.533H229.4z"/>
	<path d="M161.133,468.333H127c-14.507,0-25.6-11.093-25.6-25.6V408.6c0-14.507,11.093-25.6,25.6-25.6h34.133
		c14.507,0,25.6,11.093,25.6,25.6v34.133C186.733,457.24,175.64,468.333,161.133,468.333z M127,400.067
		c-5.12,0-8.533,3.413-8.533,8.533v34.133c0,5.12,3.413,8.533,8.533,8.533h34.133c5.12,0,8.533-3.413,8.533-8.533V408.6
		c0-5.12-3.413-8.533-8.533-8.533H127z"/>
	<path d="M263.533,468.333H229.4c-14.507,0-25.6-11.093-25.6-25.6V408.6c0-14.507,11.093-25.6,25.6-25.6h34.133
		c14.507,0,25.6,11.093,25.6,25.6v34.133C289.133,457.24,278.04,468.333,263.533,468.333z M229.4,400.067
		c-5.12,0-8.533,3.413-8.533,8.533v34.133c0,5.12,3.413,8.533,8.533,8.533h34.133c5.12,0,8.533-3.413,8.533-8.533V408.6
		c0-5.12-3.413-8.533-8.533-8.533H229.4z"/>
	<path d="M365.933,468.333H331.8c-14.507,0-25.6-11.093-25.6-25.6V306.2c0-14.507,11.093-25.6,25.6-25.6h34.133
		c14.507,0,25.6,11.093,25.6,25.6v136.533C391.533,457.24,380.44,468.333,365.933,468.333z M331.8,297.667
		c-5.12,0-8.533,3.413-8.533,8.533v136.533c0,5.12,3.413,8.533,8.533,8.533h34.133c5.12,0,8.533-3.413,8.533-8.533V306.2
		c0-5.12-3.413-8.533-8.533-8.533H331.8z"/>
</g>
</svg>